<mxfile host="app.diagrams.net" agent="Mozilla/5.0 (Linux; Android 11; vivo 1906; wv) AppleWebKit/537.36 (KHTML, like Gecko) Version/4.0 Chrome/123.0.6312.118 Mobile Safari/537.36 VivoBrowser/14.0.2.0" version="26.2.14">
  <diagram name="Page-1" id="z0ljB7gjTotLR-EnUQnY">
    <mxGraphModel>
      <root>
        <mxCell id="0" />
        <mxCell id="1" parent="0" />
      </root>
    </mxGraphModel>
  </diagram>
</mxfile>
